<svg width="35" height="35" viewBox="0 0 35 35" fill="none" xmlns="http://www.w3.org/2000/svg">
<circle cx="17.3465" cy="17.4488" r="16.8839" fill="white"/>
<path d="M25.7013 17.6303C25.6248 17.9495 25.4334 18.1783 25.2335 18.4023C23.3068 20.5562 21.3843 22.7102 19.4619 24.8642C19.1046 25.2597 18.6581 25.3788 18.3008 25.0786C17.9733 24.807 17.6798 24.4686 17.4289 24.1065C17.195 23.7681 17.2588 23.2868 17.5097 22.9532C17.5565 22.8865 17.6118 22.8293 17.6671 22.7674C18.7686 21.5379 19.8702 20.3084 20.9718 19.0742C21.0101 19.0313 21.0483 18.9789 21.1121 18.9074C21.0143 18.9074 20.9548 18.9074 20.891 18.9074C17.28 18.9074 13.6691 18.9074 10.0581 18.9074C9.35637 18.9122 8.9906 18.5023 8.9906 17.7303C8.9906 17.5254 8.9906 17.3157 8.9906 17.1108C8.9906 16.3912 9.34787 15.9862 9.9901 15.9862C11.8402 15.9862 13.6904 15.9862 15.5362 15.9862C17.3098 15.9862 19.0834 15.9862 20.8569 15.9862C20.9165 15.9862 20.976 15.9862 21.0739 15.9862C21.0101 15.9147 20.976 15.8671 20.9335 15.8242C19.8277 14.5804 18.7219 13.3414 17.616 12.0976C17.2673 11.7068 17.1652 11.1874 17.4289 10.7919C17.6756 10.4249 17.9776 10.0961 18.3008 9.81496C18.607 9.5481 19.0408 9.62435 19.3428 9.91027C19.4024 9.96746 19.4534 10.0246 19.5087 10.0866C21.4141 12.2215 23.3153 14.3516 25.2207 16.4818C25.4249 16.7105 25.6205 16.944 25.7013 17.2681C25.7013 17.3872 25.7013 17.5064 25.7013 17.6303Z" fill="#939598"/>
</svg>
