<svg width="393" height="91" viewBox="0 0 393 91" fill="none" xmlns="http://www.w3.org/2000/svg">
<g clip-path="url(#clip0_70_574)">
<path d="M180.642 31.776C177.644 29.1591 172.917 29.5004 170.265 32.4587C167.613 35.417 167.959 40.082 170.957 42.6989C173.955 45.3158 178.797 44.9745 181.333 42.0162C183.985 39.0579 183.639 34.393 180.642 31.776ZM176.491 44.178C176.26 44.178 176.03 44.178 175.799 44.178C172.225 44.178 169.112 41.4473 168.766 37.9201C168.536 36.0997 169.112 34.2792 170.381 32.8C171.533 31.3209 173.263 30.4107 175.223 30.2969C177.068 30.0693 178.912 30.6382 180.411 31.8898C181.91 33.0276 182.832 34.7343 182.948 36.6686C182.948 36.8961 182.948 37.1237 182.948 37.3512C182.832 40.7646 180.181 43.8367 176.491 44.178ZM175.799 32.0036C175.569 32.0036 175.453 32.0036 175.223 32.0036C173.839 32.1174 172.571 32.8 171.649 33.9378C170.726 34.9619 170.381 36.3272 170.496 37.8064C170.842 40.6509 173.378 42.6989 176.261 42.4713C179.143 42.13 181.218 39.6268 180.988 36.7823C180.872 35.417 180.181 34.1654 179.028 33.2552C178.105 32.4587 176.952 32.0036 175.799 32.0036ZM186.983 46.795C186.406 46.795 185.83 46.795 185.253 46.6812C184.216 47.7052 183.063 48.5017 181.795 49.1844C181.679 50.6635 180.642 52.2564 180.642 52.3702C180.526 52.5978 180.296 52.7115 179.95 52.8253L174.877 53.2804H174.762C174.531 53.2804 174.301 53.1667 174.07 52.9391C173.955 52.8253 172.686 51.46 172.225 50.0946C170.842 49.7533 169.458 49.1844 168.305 48.3879C166.922 48.9568 165.077 48.9568 164.962 48.9568C164.731 48.9568 164.385 48.843 164.27 48.6155L161.272 44.5194C161.157 44.2918 161.042 44.0643 161.157 43.7229C161.157 43.6091 161.733 41.7887 162.771 40.7646C162.425 39.3993 162.31 37.9201 162.31 36.5548C161.157 35.7583 160.119 34.0516 160.119 33.9378C160.004 33.7103 160.004 33.3689 160.119 33.1414L162.195 28.5902C162.31 28.3626 162.541 28.1351 162.771 28.1351C162.886 28.1351 164.846 27.6799 166.23 28.0213C167.268 26.9973 168.421 26.2008 169.689 25.5181C169.804 24.039 170.842 22.4461 170.842 22.3323C170.957 22.1047 171.303 21.9909 171.533 21.8772L176.606 21.422C176.837 21.422 177.183 21.5358 177.413 21.7634C177.529 21.8772 178.797 23.2425 179.258 24.6079C180.642 24.9492 182.025 25.5181 183.178 26.4284C184.101 25.9732 185.369 25.8595 186.061 25.8595L191.71 19.4878C181.564 10.8405 166.345 11.7507 157.468 21.7634C148.59 31.776 149.743 46.9088 159.773 55.556C170.035 64.3171 185.253 63.1793 194.016 53.1667L186.983 46.795ZM174.416 50.4359C174.646 50.7773 174.877 51.1186 175.108 51.3462L179.143 50.8911C179.373 50.5497 179.489 50.0946 179.604 49.7533C177.99 50.4359 176.261 50.5497 174.416 50.4359ZM163.578 42.6989C163.348 43.0402 163.232 43.3816 163.117 43.7229L165.538 47.0225C165.884 47.0225 166.345 47.0225 166.691 46.9088C165.192 45.771 164.155 44.2918 163.578 42.6989ZM163.693 29.6142L161.964 33.3689C162.195 33.7103 162.425 34.0516 162.656 34.2792C163.002 32.5725 163.809 30.9796 164.846 29.5004C164.501 29.5004 164.039 29.5004 163.693 29.6142ZM176.376 23.1287L172.341 23.4701C172.11 23.8114 171.995 24.1528 171.879 24.4941C173.609 24.039 175.338 23.8114 177.068 23.9252C176.837 23.6976 176.606 23.3563 176.376 23.1287Z" fill="white"/>
<path d="M24.7641 24.494C21.0747 22.901 13.9264 21.5357 13.9264 16.3018C13.9264 13.2297 16.4629 10.7266 19.5758 10.7266C22.6888 10.7266 25.2253 13.2297 25.2253 16.3018H35.9476C36.0629 7.31317 28.6841 0.03125 19.5758 0.03125C10.4676 0.03125 3.20407 7.31317 3.20407 16.3018C3.20407 22.1046 6.20172 27.2247 10.9288 30.0692C16.4629 33.4826 27.7617 34.279 27.7617 42.4712C27.7617 46.9086 24.0723 50.5496 19.5758 50.5496C15.4252 50.5496 12.0817 47.4775 11.5053 43.609H0.782898C1.35937 53.2803 9.54525 61.1311 19.5758 61.1311C29.9523 61.1311 38.4841 52.8252 38.4841 42.4712C38.4841 33.255 32.6041 27.7936 24.7641 24.494Z" fill="white"/>
<path d="M69.2676 13.3438C55.8935 13.3438 44.9406 24.0391 44.9406 37.2376V90.0315H55.7782V37.2376C55.7782 29.8419 61.8888 23.9253 69.2676 23.9253C76.6464 23.9253 82.6417 29.8419 82.6417 37.2376C82.6417 44.6333 76.6464 50.5498 69.2676 50.5498C66.3853 50.5498 63.7335 49.6396 61.4276 48.0467V59.8798C63.8488 60.6762 66.6159 61.1314 69.2676 61.1314C82.6417 61.1314 93.4794 50.436 93.4794 37.2376C93.4794 24.0391 82.6417 13.3438 69.2676 13.3438Z" fill="white"/>
<path d="M115.616 41.7888H146.284C146.515 40.1958 146.745 38.7167 146.745 37.1238C146.745 32.9139 145.477 27.1111 141.096 21.8773C136.599 16.6434 129.912 13.3438 122.533 13.3438C109.159 13.3438 98.2064 24.0391 98.2064 37.2376C98.2064 50.436 109.159 61.1314 122.533 61.1314C125.416 61.1314 128.068 60.6762 130.835 59.6522V47.7053C128.529 49.5258 125.762 50.5498 122.533 50.5498C114.809 50.5498 109.044 44.2919 109.044 37.2376C109.044 29.9556 114.809 23.9253 122.533 23.9253C127.722 23.9253 132.218 26.8836 134.524 31.0934H115.616V41.7888Z" fill="white"/>
<path d="M225.261 0.03125H206.006V10.6128H225.261C236.329 10.6128 245.437 19.4876 245.437 30.5243C245.437 41.561 236.444 50.4358 225.261 50.4358H216.844V23.6975H206.006V61.1311H225.261C242.324 61.1311 256.275 47.4775 256.275 30.5243C256.159 13.7986 242.439 0.03125 225.261 0.03125Z" fill="white"/>
<path d="M286.482 16.4158C286.712 16.4158 286.828 16.4158 286.943 16.5296V13.4575C285.329 13.4575 283.83 13.5713 282.446 13.9126C280.948 15.0504 280.025 16.8709 280.025 18.919C280.025 21.4221 281.409 23.5839 283.599 24.608C284.752 24.2666 285.905 24.1528 287.058 24.1528V21.1946C286.943 21.1946 286.712 21.3083 286.597 21.3083C285.213 21.3083 284.176 20.2843 284.176 18.919C284.06 17.4398 285.213 16.4158 286.482 16.4158ZM268.496 26.0871C267.228 26.0871 265.959 26.4284 265.037 27.1111C263.769 29.7281 263.077 32.5726 262.846 35.5308C263.999 37.4651 266.075 38.8305 268.496 38.8305C270.571 38.8305 272.416 37.8064 273.569 36.3273C273.684 34.6206 274.145 32.9139 274.837 31.4348C274.376 28.4765 271.724 26.0871 268.496 26.0871ZM268.496 34.8482C267.228 34.8482 266.075 33.8241 266.075 32.4588C266.075 31.0934 267.112 30.0694 268.496 30.0694C269.879 30.0694 270.917 31.0934 270.917 32.4588C270.802 33.8241 269.764 34.8482 268.496 34.8482ZM278.181 18.6914C278.181 17.0985 278.642 15.7331 279.333 14.4815C273.915 16.1882 269.303 19.8292 266.305 24.4942C266.997 24.2666 267.689 24.2666 268.381 24.2666C271.839 24.2666 274.837 26.4284 276.105 29.3867C277.489 27.5662 279.218 26.0871 281.409 25.1769C279.449 23.6977 278.181 21.3083 278.181 18.6914ZM268.496 40.6509C266.19 40.6509 264.23 39.7407 262.731 38.3753V61.2451H273.569V38.9442C272.185 39.9683 270.34 40.6509 268.496 40.6509ZM268.496 26.0871C267.228 26.0871 265.959 26.4284 265.037 27.1111C263.769 29.7281 263.077 32.5726 262.846 35.5308C263.999 37.4651 266.075 38.8305 268.496 38.8305C270.571 38.8305 272.416 37.8064 273.569 36.3273C273.684 34.6206 274.145 32.9139 274.837 31.4348C274.376 28.4765 271.724 26.0871 268.496 26.0871ZM268.496 34.8482C267.228 34.8482 266.075 33.8241 266.075 32.4588C266.075 31.0934 267.112 30.0694 268.496 30.0694C269.879 30.0694 270.917 31.0934 270.917 32.4588C270.802 33.8241 269.764 34.8482 268.496 34.8482Z" fill="white"/>
<path d="M368.571 13.3438C355.197 13.3438 344.244 24.0391 344.244 37.2376V90.0315H355.082V37.2376C355.082 29.8419 361.077 23.9253 368.571 23.9253C375.95 23.9253 381.945 29.8419 381.945 37.2376C381.945 44.6333 375.95 50.5498 368.571 50.5498C365.689 50.5498 363.037 49.6396 360.731 48.0467V59.8798C363.152 60.6762 365.919 61.1314 368.571 61.1314C381.945 61.1314 392.783 50.436 392.783 37.2376C392.783 24.0391 381.83 13.3438 368.571 13.3438Z" fill="white"/>
<path d="M72.957 75.126H67.3076V81.9528H68.8064V79.2221H72.957C73.8794 79.2221 74.3406 78.7669 74.3406 77.8567V76.4913C74.4559 75.5811 73.8794 75.126 72.957 75.126ZM72.957 77.8567H68.8064V76.4913H72.957V77.8567Z" fill="white"/>
<path d="M84.9476 75.126H83.5641L80.6818 81.9528H82.2959L82.5265 81.2701H85.7547L86.1006 81.9528H87.7147L84.9476 75.126ZM83.1029 79.9047L84.1406 77.174L85.1782 79.9047H83.1029Z" fill="white"/>
<path d="M101.781 77.8567V76.4913C101.781 75.5811 101.319 75.126 100.397 75.126H94.8629V81.9528H96.2464V79.2221H97.63L100.051 81.9528H101.781L99.3594 79.2221H100.397C101.319 79.2221 101.781 78.7669 101.781 77.8567ZM100.282 77.8567H96.1311V76.4913H100.282V77.8567Z" fill="white"/>
<path d="M108.698 75.126V76.4913H111.465V81.9528H112.849V76.3776H115.616V75.126H108.698Z" fill="white"/>
<path d="M142.364 75.126V80.0185L138.213 75.126H136.83V81.9528H138.213V77.174L142.364 81.9528H143.748V75.126H142.364Z" fill="white"/>
<path d="M156.545 75.126V80.5874H152.395V75.126H151.011V80.5874C151.011 81.4977 151.472 81.9528 152.395 81.9528H156.545C157.468 81.9528 157.929 81.4977 157.929 80.5874V75.126H156.545Z" fill="white"/>
<path d="M170.726 75.126H166.576C165.653 75.126 165.192 75.5811 165.192 76.4913V81.9528H166.576V76.3776H167.959V81.9528H169.343V76.3776H170.726V81.9528H172.11V76.3776C172.11 75.5811 171.649 75.126 170.726 75.126Z" fill="white"/>
<path d="M186.406 77.8567V76.4913C186.406 75.5811 185.945 75.126 185.023 75.126H179.373V81.9528H185.023C185.945 81.9528 186.406 81.4977 186.406 80.5874V79.2221C186.406 78.7669 186.176 78.5394 185.715 78.5394C186.176 78.5394 186.406 78.3118 186.406 77.8567ZM185.023 80.5874H180.872V79.2221H185.023V80.5874ZM185.023 77.8567H180.872V76.4913H185.023V77.8567Z" fill="white"/>
<path d="M200.588 76.4913V75.126H193.555V81.9528H200.588V80.5874H194.938V79.2221H200.588V77.8567H194.938V76.4913H200.588Z" fill="white"/>
<path d="M214.769 77.8567V76.4913C214.769 75.5811 214.308 75.126 213.385 75.126H207.736V81.9528H209.119V79.2221H210.503L212.924 81.9528H214.653L212.232 79.2221H213.27C214.308 79.2221 214.769 78.7669 214.769 77.8567ZM213.385 77.8567H209.235V76.4913H213.385V77.8567Z" fill="white"/>
<path d="M241.402 75.126H235.752V81.9528H241.402C242.324 81.9528 242.785 81.4977 242.785 80.5874V76.4913C242.785 75.5811 242.324 75.126 241.402 75.126ZM241.402 80.5874H237.136V76.4913H241.286V80.5874H241.402Z" fill="white"/>
<path d="M256.966 76.4913V75.126H249.933V81.9528H256.966V80.5874H251.317V79.2221H256.966V77.8567H251.317V76.4913H256.966Z" fill="white"/>
<path d="M271.148 76.4913V75.126H265.498C264.576 75.126 264.115 75.5811 264.115 76.4913V80.5874C264.115 81.4977 264.576 81.9528 265.498 81.9528H271.148V80.5874H265.498V76.4913H271.148Z" fill="white"/>
<path d="M283.715 75.126H279.564C278.642 75.126 278.181 75.5811 278.181 76.4913V80.5874C278.181 81.4977 278.642 81.9528 279.564 81.9528H283.715C284.637 81.9528 285.098 81.4977 285.098 80.5874V76.4913C285.098 75.5811 284.637 75.126 283.715 75.126ZM283.715 80.5874H279.564V76.4913H283.715V80.5874Z" fill="white"/>
<path d="M297.896 75.126H292.362V81.9528H297.896C298.818 81.9528 299.279 81.4977 299.279 80.5874V76.4913C299.395 75.5811 298.933 75.126 297.896 75.126ZM297.896 80.5874H293.745V76.4913H297.896V80.5874Z" fill="white"/>
<path d="M313.576 76.4913V75.126H306.543V81.9528H313.576V80.5874H307.926V79.2221H313.576V77.8567H307.926V76.4913H313.576Z" fill="white"/>
<path d="M326.374 75.126H320.724V81.9528H326.374C327.296 81.9528 327.757 81.4977 327.757 80.5874V76.4913C327.757 75.5811 327.296 75.126 326.374 75.126ZM326.374 80.5874H322.108V76.4913H326.374V80.5874Z" fill="white"/>
<path d="M187.905 39.3989C187.559 39.2852 187.098 39.0576 187.098 38.6025L186.637 33.71C186.637 33.2548 186.868 32.9135 187.214 32.7997C187.559 32.6859 188.136 31.7757 188.482 30.7517L186.061 27.452C185.023 27.452 183.985 27.7934 183.755 28.0209C183.524 28.3623 183.063 28.4761 182.602 28.3623L177.99 26.3142C177.644 26.0867 177.414 25.7453 177.529 25.2902C177.529 25.0627 177.298 24.6075 177.068 24.1524C176.837 23.8111 176.722 23.5835 176.376 23.2422L172.341 23.5835C172.11 23.9249 171.995 24.2662 171.879 24.6075C171.649 25.1764 171.534 25.6316 171.649 25.8591C171.764 26.2005 171.649 26.6556 171.303 26.9969L167.268 29.8414C166.922 30.069 166.461 30.069 166.115 29.8414C165.999 29.7277 165.423 29.6139 164.846 29.6139C164.501 29.6139 164.039 29.6139 163.694 29.7276L161.964 33.4824C162.195 33.8237 162.425 34.1651 162.656 34.3926C163.002 34.8478 163.463 35.1891 163.578 35.1891C163.924 35.3029 164.385 35.6442 164.385 35.9856L164.846 40.8781C164.846 41.3332 164.616 41.6746 164.27 41.7883C164.155 41.9021 163.809 42.2435 163.463 42.8123C163.232 43.1537 163.117 43.495 163.002 43.8364L165.423 47.136C165.769 47.136 166.23 47.136 166.576 47.0222C167.152 46.9084 167.729 46.7947 167.844 46.6809C168.075 46.4533 168.305 46.3395 168.651 46.3395C168.766 46.3395 168.882 46.3395 168.997 46.4533L173.609 48.5014C173.955 48.7289 174.185 49.0703 174.07 49.5254C174.07 49.7529 174.185 50.2081 174.531 50.6632C174.762 51.0045 174.992 51.3459 175.223 51.5734L179.258 51.1183C179.489 50.777 179.604 50.3218 179.719 49.9805C179.95 49.4116 180.065 48.9565 179.95 48.8427C179.835 48.5014 179.95 48.0462 180.296 47.7049L184.331 44.8604C184.677 44.6328 185.138 44.6328 185.484 44.9742C185.715 45.2017 186.868 45.2017 187.905 44.9742L189.635 41.2194C188.943 40.3092 188.251 39.5127 187.905 39.3989ZM176.491 44.1777C176.261 44.1777 176.03 44.1777 175.799 44.1777C172.225 44.1777 169.112 41.447 168.766 37.9198C168.536 36.0993 169.112 34.2788 170.381 32.7997C171.534 31.3206 173.263 30.4103 175.223 30.2965C177.068 30.069 178.912 30.6379 180.411 31.8895C181.91 33.0273 182.832 34.734 182.948 36.6682C182.948 36.8958 182.948 37.1234 182.948 37.3509C182.832 40.7643 180.181 43.8364 176.491 44.1777Z" fill="white"/>
<path d="M293.63 17.0981C293.284 17.0981 293.053 17.2119 292.708 17.3257C292.016 14.4812 289.479 12.3193 286.366 12.3193C284.868 12.3193 283.484 12.7745 282.331 13.6847C280.832 14.8225 279.91 16.643 279.91 18.691C279.91 21.1942 281.293 23.356 283.484 24.38C284.406 24.8351 285.329 25.0627 286.482 25.0627C286.828 25.0627 287.173 25.0627 287.635 24.9489C287.635 25.2903 287.75 25.5178 287.865 25.8592C288.788 25.7454 289.71 25.404 290.402 24.8351C290.286 24.4938 290.286 24.1525 290.286 23.9249C291.555 23.0147 292.477 21.7631 292.823 20.1702C293.169 20.0564 293.399 19.9426 293.745 19.9426C293.861 19.6013 293.861 19.1461 293.861 18.8048C293.861 18.2359 293.861 17.667 293.63 17.0981ZM286.482 21.0804C285.098 21.0804 284.061 20.0564 284.061 18.691C284.061 17.4394 285.098 16.3016 286.482 16.3016C286.712 16.3016 286.828 16.3016 286.943 16.4154C287.981 16.643 288.788 17.5532 288.788 18.691C288.788 19.8288 287.981 20.7391 286.943 20.9666C286.828 21.0804 286.712 21.0804 286.482 21.0804Z" fill="white"/>
<path d="M294.668 17.0981H294.552C294.322 17.0981 294.091 17.0981 293.745 17.0981C293.399 17.0981 293.169 17.2119 292.823 17.3257C292.938 17.7808 292.938 18.2359 292.938 18.6911C292.938 19.1462 292.938 19.7151 292.823 20.1702C293.169 20.0564 293.399 19.9426 293.745 19.9426C293.976 19.9426 294.206 19.8289 294.437 19.8289C294.552 19.8289 294.668 19.8289 294.668 19.8289C294.668 19.4875 294.783 19.0324 294.783 18.6911C294.783 18.2359 294.668 17.667 294.668 17.0981ZM290.402 24.949C290.286 24.6076 290.286 24.2663 290.286 24.0387C289.479 24.6076 288.672 24.949 287.635 25.1765C287.635 25.5179 287.75 25.7454 287.865 26.0868C287.981 26.4281 288.096 26.6557 288.211 26.997C289.133 26.7694 290.056 26.4281 290.748 25.973C290.517 25.5179 290.402 25.1765 290.402 24.949Z" fill="white"/>
<path d="M326.95 38.1475C326.604 33.4825 324.298 29.5002 320.378 26.8833C324.99 28.2487 328.103 33.4825 326.95 38.1475Z" fill="white"/>
<path d="M301.355 23.9248H298.588C298.588 22.2181 297.55 20.8528 296.051 20.1701C296.743 19.4874 297.435 18.9185 298.242 18.2358C300.202 19.6012 301.355 21.6492 301.355 23.9248Z" fill="white"/>
<path d="M298.357 18.3497C297.55 18.9186 296.858 19.6013 296.166 20.284C295.705 20.0564 295.244 19.9427 294.783 19.9427C294.668 19.9427 294.668 19.9427 294.552 19.9427C294.322 19.9427 294.091 19.9427 293.861 20.0564C293.515 20.0564 293.169 20.1702 292.938 20.284C291.439 20.8529 290.402 22.332 290.402 24.0387C290.402 24.3801 290.402 24.7214 290.517 24.949C290.632 25.2903 290.748 25.5179 290.863 25.7454C290.978 26.0868 291.209 26.4281 291.555 26.6557C291.093 27.4521 290.748 28.3624 290.402 29.2726C289.479 28.5899 288.788 27.6797 288.326 26.6557C288.211 26.4281 288.096 26.0868 287.981 25.7454C287.865 25.5179 287.865 25.1765 287.75 24.8352C287.75 24.4939 287.635 24.1525 287.635 23.8112C287.635 20.6253 289.941 17.8946 292.938 17.2119C293.284 17.0982 293.515 17.0982 293.861 16.9844C294.091 16.9844 294.322 16.9844 294.668 16.9844H294.783C296.051 17.0982 297.319 17.5533 298.357 18.3497Z" fill="white"/>
<path d="M294.437 28.1349V30.7518C292.823 30.7518 291.439 30.2967 290.286 29.3865C290.632 28.4762 290.978 27.566 291.439 26.7695C292.131 27.566 293.169 28.1349 294.437 28.1349Z" fill="white"/>
<path d="M274.837 31.5484C274.376 28.4763 271.724 26.0869 268.496 26.0869C267.228 26.0869 265.959 26.4283 265.037 27.1109C263.308 28.2487 262.039 30.183 262.039 32.4586C262.039 33.5964 262.27 34.6204 262.846 35.5307C263.999 37.4649 266.075 38.8303 268.496 38.8303C270.571 38.8303 272.416 37.8063 273.569 36.3271C274.376 35.1893 274.952 33.9377 274.952 32.4586C274.952 32.1173 274.952 31.7759 274.837 31.5484ZM268.496 34.848C267.228 34.848 266.075 33.824 266.075 32.4586C266.075 31.0932 267.112 30.0692 268.496 30.0692C269.879 30.0692 270.917 31.0932 270.917 32.4586C270.802 33.824 269.764 34.848 268.496 34.848Z" fill="white"/>
<path d="M281.639 68.0717H255.237V66.365C255.237 64.7721 256.505 63.5205 258.119 63.5205H278.642C280.256 63.5205 281.524 64.7721 281.524 66.365V68.0717H281.639Z" fill="white"/>
<path d="M323.491 39.2852C323.145 34.6202 320.839 30.6379 316.919 28.021C321.531 29.3864 324.644 34.6202 323.491 39.2852Z" fill="white"/>
<path d="M313.576 49.8671C320.644 49.8671 326.373 44.2126 326.373 37.2375C326.373 30.2624 320.644 24.6079 313.576 24.6079C306.508 24.6079 300.778 30.2624 300.778 37.2375C300.778 44.2126 306.508 49.8671 313.576 49.8671Z" stroke="white" stroke-width="1.5" stroke-miterlimit="10"/>
<path d="M313.576 56.1246C324.146 56.1246 332.715 47.6684 332.715 37.2371C332.715 26.8058 324.146 18.3496 313.576 18.3496C303.006 18.3496 294.437 26.8058 294.437 37.2371C294.437 47.6684 303.006 56.1246 313.576 56.1246Z" stroke="white" stroke-width="4" stroke-miterlimit="10"/>
</g>
<defs>
<clipPath id="clip0_70_574">
<rect width="392" height="90" fill="white" transform="translate(0.782898 0.03125)"/>
</clipPath>
</defs>
</svg>
