<svg width="25" height="25" viewBox="0 0 25 25" fill="none" xmlns="http://www.w3.org/2000/svg">
<path d="M18.2177 6.01762C17.9763 6.01762 17.7402 6.088 17.5394 6.21985C17.3386 6.35171 17.1821 6.53913 17.0897 6.7584C16.9973 6.97767 16.9731 7.21895 17.0202 7.45173C17.0673 7.6845 17.1836 7.89832 17.3544 8.06615C17.5251 8.23397 17.7427 8.34826 17.9795 8.39456C18.2164 8.44086 18.4619 8.4171 18.685 8.32627C18.9081 8.23545 19.0988 8.08164 19.233 7.8843C19.3671 7.68696 19.4387 7.45495 19.4387 7.21762C19.4387 6.89936 19.3101 6.59413 19.0811 6.36909C18.8521 6.14405 18.5416 6.01762 18.2177 6.01762ZM22.8982 8.43762C22.8784 7.60792 22.7203 6.78702 22.4302 6.00762C22.1715 5.34075 21.7688 4.7369 21.2499 4.23762C20.746 3.72504 20.1302 3.33179 19.4489 3.08762C18.658 2.79378 17.8218 2.63483 16.9764 2.61762C15.8979 2.55762 15.5519 2.55762 12.7843 2.55762C10.0167 2.55762 9.67079 2.55762 8.59225 2.61762C7.74686 2.63483 6.91068 2.79378 6.11973 3.08762C5.43972 3.33427 4.82439 3.72718 4.31877 4.23762C3.79723 4.73279 3.3971 5.33806 3.14865 6.00762C2.84967 6.78496 2.68794 7.60677 2.67042 8.43762C2.60937 9.49762 2.60938 9.83762 2.60938 12.5576C2.60938 15.2776 2.60937 15.6176 2.67042 16.6776C2.68794 17.5085 2.84967 18.3303 3.14865 19.1076C3.3971 19.7772 3.79723 20.3824 4.31877 20.8776C4.82439 21.3881 5.43972 21.781 6.11973 22.0276C6.91068 22.3215 7.74686 22.4804 8.59225 22.4976C9.67079 22.5576 10.0167 22.5576 12.7843 22.5576C15.5519 22.5576 15.8979 22.5576 16.9764 22.4976C17.8218 22.4804 18.658 22.3215 19.4489 22.0276C20.1302 21.7834 20.746 21.3902 21.2499 20.8776C21.7711 20.3802 22.1741 19.7758 22.4302 19.1076C22.7203 18.3282 22.8784 17.5073 22.8982 16.6776C22.8982 15.6176 22.9593 15.2776 22.9593 12.5576C22.9593 9.83762 22.9593 9.49762 22.8982 8.43762ZM21.0667 16.5576C21.0593 17.1924 20.9423 17.8213 20.7208 18.4176C20.5583 18.8528 20.2974 19.246 19.9577 19.5676C19.6276 19.8981 19.2284 20.1541 18.7875 20.3176C18.1808 20.5354 17.5409 20.6503 16.895 20.6576C15.8775 20.7076 15.501 20.7176 12.825 20.7176C10.149 20.7176 9.77254 20.7176 8.75504 20.6576C8.0844 20.67 7.41663 20.5685 6.7811 20.3576C6.35964 20.1857 5.97866 19.9304 5.66186 19.6076C5.32414 19.2864 5.06647 18.8928 4.90891 18.4576C4.6605 17.8528 4.52272 17.2096 4.50192 16.5576C4.50192 15.5576 4.44087 15.1876 4.44087 12.5576C4.44087 9.92762 4.44087 9.55762 4.50192 8.55762C4.50648 7.90867 4.62702 7.26556 4.85804 6.65762C5.03717 6.23553 5.31211 5.85928 5.66186 5.55762C5.97099 5.21379 6.35303 4.94071 6.7811 4.75762C7.40132 4.53766 8.05501 4.4227 8.71434 4.41762C9.73184 4.41762 10.1083 4.35762 12.7843 4.35762C15.4603 4.35762 15.8368 4.35762 16.8543 4.41762C17.5002 4.4249 18.1401 4.53986 18.7468 4.75762C19.2092 4.92627 19.6242 5.20046 19.9577 5.55762C20.2911 5.8648 20.5516 6.24035 20.7208 6.65762C20.9469 7.26655 21.064 7.9094 21.0667 8.55762C21.1176 9.55762 21.1278 9.92762 21.1278 12.5576C21.1278 15.1876 21.1176 15.5576 21.0667 16.5576ZM12.7843 7.42762C11.7524 7.42959 10.7442 7.73214 9.88717 8.29704C9.03012 8.86193 8.36268 9.66381 7.96917 10.6014C7.57566 11.5389 7.47374 12.5701 7.67629 13.5645C7.87884 14.559 8.37678 15.4722 9.10718 16.1886C9.83757 16.905 10.7677 17.3926 11.7799 17.5898C12.7922 17.7869 13.8412 17.6847 14.7944 17.2962C15.7475 16.9076 16.5622 16.2501 17.1353 15.4067C17.7084 14.5632 18.0142 13.5718 18.0142 12.5576C18.0156 11.8827 17.8812 11.2142 17.6187 10.5906C17.3562 9.96692 16.9709 9.40043 16.4848 8.92367C15.9988 8.44691 15.4216 8.0693 14.7865 7.81255C14.1515 7.5558 13.471 7.42498 12.7843 7.42762ZM12.7843 15.8876C12.1142 15.8876 11.4591 15.6923 10.9019 15.3264C10.3447 14.9605 9.91043 14.4404 9.65398 13.832C9.39753 13.2235 9.33043 12.5539 9.46117 11.908C9.59191 11.262 9.91461 10.6687 10.3885 10.203C10.8623 9.73724 11.4661 9.42009 12.1233 9.2916C12.7806 9.16311 13.4618 9.22906 14.081 9.4811C14.7001 9.73314 15.2293 10.16 15.6016 10.7076C15.9739 11.2552 16.1726 11.899 16.1726 12.5576C16.1726 12.9949 16.0849 13.4279 15.9147 13.832C15.7444 14.236 15.4948 14.6031 15.1802 14.9123C14.8656 15.2215 14.492 15.4668 14.081 15.6341C13.6699 15.8015 13.2293 15.8876 12.7843 15.8876Z" fill="white"/>
</svg>
