<svg width="237" height="54" viewBox="0 0 237 54" fill="none" xmlns="http://www.w3.org/2000/svg">
<g clip-path="url(#clip0_70_457)">
<path d="M108.545 19.0468C106.74 17.4766 103.894 17.6814 102.298 19.4564C100.701 21.2314 100.909 24.0303 102.714 25.6005C104.519 27.1707 107.434 26.9659 108.961 25.1909C110.558 23.4159 110.349 20.6169 108.545 19.0468ZM106.046 26.488C105.907 26.488 105.768 26.488 105.629 26.488C103.478 26.488 101.604 24.8496 101.395 22.7333C101.256 21.641 101.604 20.5487 102.367 19.6612C103.061 18.7737 104.102 18.2276 105.282 18.1593C106.393 18.0228 107.504 18.3641 108.406 19.115C109.308 19.7977 109.864 20.8217 109.933 21.9823C109.933 22.1188 109.933 22.2554 109.933 22.3919C109.864 24.44 108.267 26.2832 106.046 26.488ZM105.629 19.1833C105.491 19.1833 105.421 19.1833 105.282 19.1833C104.449 19.2516 103.686 19.6612 103.131 20.3439C102.575 20.9583 102.367 21.7775 102.436 22.665C102.645 24.3717 104.172 25.6005 105.907 25.464C107.642 25.2592 108.892 23.7573 108.753 22.0506C108.684 21.2314 108.267 20.4804 107.573 19.9343C107.018 19.4564 106.324 19.1833 105.629 19.1833ZM112.362 28.0582C112.015 28.0582 111.668 28.0582 111.321 27.9899C110.696 28.6043 110.002 29.0822 109.239 29.4918C109.169 30.3793 108.545 31.335 108.545 31.4033C108.475 31.5398 108.336 31.6081 108.128 31.6764L105.074 31.9494H105.005C104.866 31.9494 104.727 31.8812 104.588 31.7446C104.519 31.6764 103.755 30.8571 103.478 30.0379C102.645 29.8331 101.812 29.4918 101.118 29.0139C100.285 29.3552 99.1741 29.3552 99.1047 29.3552C98.9659 29.3552 98.7577 29.287 98.6883 29.1504L96.8835 26.6928C96.8141 26.5563 96.7447 26.4197 96.8141 26.2149C96.8141 26.1467 97.1612 25.0544 97.7859 24.44C97.5777 23.6207 97.5083 22.7333 97.5083 21.914C96.8141 21.4362 96.1894 20.4121 96.1894 20.3439C96.12 20.2073 96.12 20.0025 96.1894 19.866L97.4388 17.1353C97.5083 16.9987 97.6471 16.8622 97.7859 16.8622C97.8553 16.8622 99.0353 16.5891 99.8683 16.7939C100.493 16.1795 101.187 15.7016 101.951 15.292C102.02 14.4046 102.645 13.4488 102.645 13.3805C102.714 13.244 102.922 13.1757 103.061 13.1075L106.115 12.8344C106.254 12.8344 106.462 12.9027 106.601 13.0392C106.671 13.1075 107.434 13.9267 107.712 14.7459C108.545 14.9507 109.378 15.292 110.072 15.8382C110.627 15.5651 111.391 15.4968 111.807 15.4968L115.208 11.6738C109.1 6.48546 99.9377 7.03161 94.593 13.0392C89.2483 19.0468 89.9424 28.1264 95.9812 33.3148C102.159 38.5714 111.321 37.8888 116.596 31.8812L112.362 28.0582ZM104.796 30.2427C104.935 30.4475 105.074 30.6523 105.213 30.7889L107.642 30.5158C107.781 30.311 107.851 30.0379 107.92 29.8331C106.948 30.2427 105.907 30.311 104.796 30.2427ZM98.2718 25.6005C98.133 25.8053 98.0635 26.0101 97.9941 26.2149L99.4518 28.1947C99.66 28.1947 99.9377 28.1947 100.146 28.1264C99.2435 27.4437 98.6188 26.5563 98.2718 25.6005ZM98.3412 17.7497L97.3 20.0025C97.4388 20.2073 97.5777 20.4121 97.7165 20.5487C97.9247 19.5247 98.4106 18.5689 99.0353 17.6814C98.8271 17.6814 98.5494 17.6814 98.3412 17.7497ZM105.976 13.8584L103.547 14.0632C103.408 14.268 103.339 14.4728 103.269 14.6776C104.311 14.4046 105.352 14.268 106.393 14.3363C106.254 14.1997 106.115 13.9949 105.976 13.8584Z" fill="#1E75BC"/>
<path d="M14.7 14.6776C12.4789 13.7219 8.17533 12.9027 8.17533 9.76233C8.17533 7.91909 9.70239 6.41719 11.5765 6.41719C13.4506 6.41719 14.9777 7.91909 14.9777 9.76233H21.433C21.5024 4.36915 17.06 0 11.5765 0C6.09298 0 1.72004 4.36915 1.72004 9.76233C1.72004 13.244 3.52474 16.3161 6.37063 18.0228C9.70239 20.0708 16.5047 20.5487 16.5047 25.464C16.5047 28.1264 14.2836 30.311 11.5765 30.311C9.07768 30.311 7.06474 28.4678 6.71768 26.1466H0.26239C0.609449 31.9494 5.53768 36.6599 11.5765 36.6599C17.8236 36.6599 22.96 31.6764 22.96 25.464C22.96 19.9343 19.42 16.6574 14.7 14.6776Z" fill="#1E75BC"/>
<path d="M41.493 7.98736C33.4412 7.98736 26.8471 14.4046 26.8471 22.3236V54H33.3718V22.3236C33.3718 17.8862 37.0506 14.3363 41.493 14.3363C45.9353 14.3363 49.5448 17.8862 49.5448 22.3236C49.5448 26.7611 45.9353 30.311 41.493 30.311C39.7577 30.311 38.1612 29.7649 36.773 28.8091V35.909C38.2306 36.3868 39.8965 36.6599 41.493 36.6599C49.5448 36.6599 56.0695 30.2427 56.0695 22.3236C56.0695 14.4046 49.5448 7.98736 41.493 7.98736Z" fill="#1E75BC"/>
<path d="M69.3965 25.0544H87.86C87.9989 24.0986 88.1377 23.2111 88.1377 22.2554C88.1377 19.7295 87.3742 16.2478 84.7365 13.1075C82.0295 9.96713 78.0036 7.98736 73.5612 7.98736C65.5095 7.98736 58.9153 14.4046 58.9153 22.3236C58.9153 30.2427 65.5095 36.6599 73.5612 36.6599C75.2965 36.6599 76.893 36.3869 78.5589 35.7724V28.6043C77.1706 29.6966 75.5048 30.311 73.5612 30.311C68.9106 30.311 65.4401 26.5563 65.4401 22.3236C65.4401 17.9545 68.9106 14.3363 73.5612 14.3363C76.6848 14.3363 79.3918 16.1113 80.78 18.6372H69.3965V25.0544Z" fill="#1E75BC"/>
<path d="M135.407 0H123.815V6.34893H135.407C142.071 6.34893 147.554 11.6738 147.554 18.2958C147.554 24.9178 142.14 30.2427 135.407 30.2427H130.34V14.1997H123.815V36.6599H135.407C145.68 36.6599 154.079 28.4678 154.079 18.2958C154.009 8.26043 145.749 0 135.407 0Z" fill="#1E75BC"/>
<path d="M172.265 9.83059C172.404 9.83059 172.473 9.83059 172.542 9.89886V8.05563C171.571 8.05563 170.668 8.12389 169.835 8.3287C168.933 9.01138 168.378 10.1037 168.378 11.3325C168.378 12.8344 169.211 14.1315 170.529 14.7459C171.224 14.5411 171.918 14.4728 172.612 14.4728V12.6979C172.542 12.6979 172.404 12.7661 172.334 12.7661C171.501 12.7661 170.877 12.1517 170.877 11.3325C170.807 10.445 171.501 9.83059 172.265 9.83059ZM161.437 15.6334C160.673 15.6334 159.909 15.8382 159.354 16.2478C158.591 17.818 158.174 19.5247 158.035 21.2996C158.729 22.4602 159.979 23.2794 161.437 23.2794C162.686 23.2794 163.797 22.665 164.491 21.7775C164.56 20.7535 164.838 19.7295 165.254 18.842C164.977 17.067 163.38 15.6334 161.437 15.6334ZM161.437 20.89C160.673 20.89 159.979 20.2756 159.979 19.4564C159.979 18.6372 160.604 18.0228 161.437 18.0228C162.269 18.0228 162.894 18.6372 162.894 19.4564C162.825 20.2756 162.2 20.89 161.437 20.89ZM167.267 11.196C167.267 10.2402 167.545 9.42099 167.961 8.67004C164.699 9.69406 161.922 11.8786 160.118 14.6776C160.534 14.5411 160.951 14.5411 161.367 14.5411C163.449 14.5411 165.254 15.8382 166.018 17.6131C166.851 16.5209 167.892 15.6334 169.211 15.0872C168.031 14.1997 167.267 12.7661 167.267 11.196ZM161.437 24.3717C160.048 24.3717 158.868 23.8255 157.966 23.0063V36.7282H164.491V23.3477C163.658 23.9621 162.547 24.3717 161.437 24.3717ZM161.437 15.6334C160.673 15.6334 159.909 15.8382 159.354 16.2478C158.591 17.818 158.174 19.5247 158.035 21.2996C158.729 22.4602 159.979 23.2794 161.437 23.2794C162.686 23.2794 163.797 22.665 164.491 21.7775C164.56 20.7535 164.838 19.7295 165.254 18.842C164.977 17.067 163.38 15.6334 161.437 15.6334ZM161.437 20.89C160.673 20.89 159.979 20.2756 159.979 19.4564C159.979 18.6372 160.604 18.0228 161.437 18.0228C162.269 18.0228 162.894 18.6372 162.894 19.4564C162.825 20.2756 162.2 20.89 161.437 20.89Z" fill="#1E75BC"/>
<path d="M221.686 7.98736C213.634 7.98736 207.04 14.4046 207.04 22.3236V54H213.565V22.3236C213.565 17.8862 217.174 14.3363 221.686 14.3363C226.128 14.3363 229.738 17.8862 229.738 22.3236C229.738 26.7611 226.128 30.311 221.686 30.311C219.951 30.311 218.354 29.7649 216.966 28.8091V35.909C218.424 36.3868 220.089 36.6599 221.686 36.6599C229.738 36.6599 236.262 30.2427 236.262 22.3236C236.262 14.4046 229.668 7.98736 221.686 7.98736Z" fill="#1E75BC"/>
<path d="M43.7142 45.0569H40.313V49.153H41.2153V47.5145H43.7142C44.2695 47.5145 44.5471 47.2415 44.5471 46.6953V45.8761C44.6165 45.33 44.2695 45.0569 43.7142 45.0569ZM43.7142 46.6953H41.2153V45.8761H43.7142V46.6953Z" fill="#939598"/>
<path d="M50.933 45.0569H50.1L48.3647 49.153H49.3365L49.4753 48.7434H51.4189L51.6271 49.153H52.5989L50.933 45.0569ZM49.8224 47.9241L50.4471 46.2857L51.0718 47.9241H49.8224Z" fill="#939598"/>
<path d="M61.0671 46.6953V45.8761C61.0671 45.33 60.7895 45.0569 60.2342 45.0569H56.9024V49.153H57.7353V47.5145H58.5683L60.0259 49.153H61.0671L59.6095 47.5145H60.2342C60.7895 47.5145 61.0671 47.2415 61.0671 46.6953ZM60.1648 46.6953H57.6659V45.8761H60.1648V46.6953Z" fill="#939598"/>
<path d="M65.2318 45.0569V45.8761H66.8977V49.153H67.7306V45.8078H69.3965V45.0569H65.2318Z" fill="#939598"/>
<path d="M85.5 45.0569V47.9924L83.0012 45.0569H82.1683V49.153H83.0012V46.2857L85.5 49.153H86.333V45.0569H85.5Z" fill="#939598"/>
<path d="M94.0377 45.0569V48.3338H91.5389V45.0569H90.7059V48.3338C90.7059 48.8799 90.9836 49.153 91.5389 49.153H94.0377C94.593 49.153 94.8706 48.8799 94.8706 48.3338V45.0569H94.0377Z" fill="#939598"/>
<path d="M102.575 45.0569H100.077C99.5212 45.0569 99.2436 45.33 99.2436 45.8761V49.153H100.077V45.8078H100.909V49.153H101.742V45.8078H102.575V49.153H103.408V45.8078C103.408 45.33 103.131 45.0569 102.575 45.0569Z" fill="#939598"/>
<path d="M112.015 46.6953V45.8761C112.015 45.33 111.738 45.0569 111.182 45.0569H107.781V49.153H111.182C111.738 49.153 112.015 48.8799 112.015 48.3338V47.5145C112.015 47.2415 111.877 47.1049 111.599 47.1049C111.877 47.1049 112.015 46.9684 112.015 46.6953ZM111.182 48.3338H108.684V47.5145H111.182V48.3338ZM111.182 46.6953H108.684V45.8761H111.182V46.6953Z" fill="#939598"/>
<path d="M120.553 45.8761V45.0569H116.319V49.153H120.553V48.3338H117.152V47.5145H120.553V46.6953H117.152V45.8761H120.553Z" fill="#939598"/>
<path d="M129.091 46.6953V45.8761C129.091 45.33 128.813 45.0569 128.258 45.0569H124.857V49.153H125.689V47.5145H126.522L127.98 49.153H129.021L127.564 47.5145H128.188C128.813 47.5145 129.091 47.2415 129.091 46.6953ZM128.258 46.6953H125.759V45.8761H128.258V46.6953Z" fill="#939598"/>
<path d="M145.125 45.0569H141.724V49.153H145.125C145.68 49.153 145.958 48.8799 145.958 48.3338V45.8761C145.958 45.33 145.68 45.0569 145.125 45.0569ZM145.125 48.3338H142.557V45.8761H145.055V48.3338H145.125Z" fill="#939598"/>
<path d="M154.495 45.8761V45.0569H150.261V49.153H154.495V48.3338H151.094V47.5145H154.495V46.6953H151.094V45.8761H154.495Z" fill="#939598"/>
<path d="M163.033 45.8761V45.0569H159.632C159.077 45.0569 158.799 45.33 158.799 45.8761V48.3338C158.799 48.8799 159.077 49.153 159.632 49.153H163.033V48.3338H159.632V45.8761H163.033Z" fill="#939598"/>
<path d="M170.599 45.0569H168.1C167.545 45.0569 167.267 45.33 167.267 45.8761V48.3338C167.267 48.8799 167.545 49.153 168.1 49.153H170.599C171.154 49.153 171.432 48.8799 171.432 48.3338V45.8761C171.432 45.33 171.154 45.0569 170.599 45.0569ZM170.599 48.3338H168.1V45.8761H170.599V48.3338Z" fill="#939598"/>
<path d="M179.137 45.0569H175.805V49.153H179.137C179.692 49.153 179.969 48.8799 179.969 48.3338V45.8761C180.039 45.33 179.761 45.0569 179.137 45.0569ZM179.137 48.3338H176.638V45.8761H179.137V48.3338Z" fill="#939598"/>
<path d="M188.577 45.8761V45.0569H184.342V49.153H188.577V48.3338H185.175V47.5145H188.577V46.6953H185.175V45.8761H188.577Z" fill="#939598"/>
<path d="M196.281 45.0569H192.88V49.153H196.281C196.836 49.153 197.114 48.8799 197.114 48.3338V45.8761C197.114 45.33 196.836 45.0569 196.281 45.0569ZM196.281 48.3338H193.713V45.8761H196.281V48.3338Z" fill="#939598"/>
<path d="M112.918 23.6207C112.709 23.5525 112.432 23.4159 112.432 23.1429L112.154 20.2073C112.154 19.9343 112.293 19.7295 112.501 19.6612C112.709 19.5929 113.057 19.0468 113.265 18.4324L111.807 16.4526C111.182 16.4526 110.558 16.6574 110.419 16.7939C110.28 16.9987 110.002 17.067 109.725 16.9987L106.948 15.7699C106.74 15.6334 106.601 15.4286 106.671 15.1555C106.671 15.019 106.532 14.7459 106.393 14.4728C106.254 14.268 106.185 14.1315 105.977 13.9267L103.547 14.1315C103.408 14.3363 103.339 14.5411 103.269 14.7459C103.131 15.0872 103.061 15.3603 103.131 15.4968C103.2 15.7016 103.131 15.9747 102.922 16.1795L100.493 17.8862C100.285 18.0228 100.007 18.0228 99.7989 17.8862C99.7295 17.818 99.3824 17.7497 99.0353 17.7497C98.8271 17.7497 98.5495 17.7497 98.3412 17.818L97.3 20.0708C97.4389 20.2756 97.5777 20.4804 97.7165 20.6169C97.9247 20.89 98.2024 21.0948 98.2718 21.0948C98.48 21.1631 98.7577 21.3679 98.7577 21.5727L99.0353 24.5082C99.0353 24.7813 98.8965 24.9861 98.6883 25.0544C98.6189 25.1226 98.4106 25.3274 98.2024 25.6688C98.0636 25.8736 97.9942 26.0784 97.9248 26.2832L99.3824 28.263C99.5906 28.263 99.8683 28.263 100.077 28.1947C100.424 28.1264 100.771 28.0582 100.84 27.9899C100.979 27.8534 101.118 27.7851 101.326 27.7851C101.395 27.7851 101.465 27.7851 101.534 27.8534L104.311 29.0822C104.519 29.2187 104.658 29.4235 104.588 29.6966C104.588 29.8331 104.658 30.1062 104.866 30.3793C105.005 30.5841 105.144 30.7889 105.282 30.9254L107.712 30.6523C107.851 30.4475 107.92 30.1745 107.989 29.9697C108.128 29.6283 108.198 29.3552 108.128 29.287C108.059 29.0822 108.128 28.8091 108.337 28.6043L110.766 26.8976C110.974 26.7611 111.252 26.7611 111.46 26.9659C111.599 27.1024 112.293 27.1024 112.918 26.9659L113.959 24.713C113.542 24.1669 113.126 23.689 112.918 23.6207ZM106.046 26.488C105.907 26.488 105.768 26.488 105.629 26.488C103.478 26.488 101.604 24.8496 101.395 22.7332C101.257 21.641 101.604 20.5487 102.367 19.6612C103.061 18.7737 104.102 18.2276 105.282 18.1593C106.393 18.0228 107.504 18.3641 108.406 19.115C109.308 19.7977 109.864 20.8217 109.933 21.9823C109.933 22.1188 109.933 22.2554 109.933 22.3919C109.864 24.4399 108.267 26.2832 106.046 26.488Z" fill="#939598"/>
<path d="M176.568 10.2402C176.36 10.2402 176.221 10.3085 176.013 10.3767C175.597 8.67004 174.069 7.37295 172.195 7.37295C171.293 7.37295 170.46 7.64602 169.766 8.19216C168.864 8.87484 168.308 9.96713 168.308 11.196C168.308 12.6979 169.141 13.9949 170.46 14.6094C171.015 14.8824 171.571 15.019 172.265 15.019C172.473 15.019 172.681 15.019 172.959 14.9507C172.959 15.1555 173.028 15.292 173.098 15.4968C173.653 15.4286 174.208 15.2238 174.625 14.8824C174.555 14.6776 174.555 14.4728 174.555 14.3363C175.319 13.7901 175.874 13.0392 176.082 12.0834C176.291 12.0152 176.429 11.9469 176.638 11.9469C176.707 11.7421 176.707 11.469 176.707 11.2642C176.707 10.9229 176.707 10.5815 176.568 10.2402ZM172.265 12.6296C171.432 12.6296 170.807 12.0152 170.807 11.196C170.807 10.445 171.432 9.76233 172.265 9.76233C172.404 9.76233 172.473 9.76233 172.542 9.8306C173.167 9.96713 173.653 10.5133 173.653 11.196C173.653 11.8786 173.167 12.4248 172.542 12.5613C172.473 12.6296 172.404 12.6296 172.265 12.6296Z" fill="#939598"/>
<path d="M177.193 10.2402H177.124C176.985 10.2402 176.846 10.2402 176.638 10.2402C176.429 10.2402 176.291 10.3085 176.082 10.3767C176.152 10.6498 176.152 10.9229 176.152 11.196C176.152 11.469 176.152 11.8104 176.082 12.0834C176.291 12.0152 176.429 11.9469 176.638 11.9469C176.777 11.9469 176.915 11.8786 177.054 11.8786C177.124 11.8786 177.193 11.8786 177.193 11.8786C177.193 11.6738 177.262 11.4008 177.262 11.196C177.262 10.9229 177.193 10.5815 177.193 10.2402ZM174.625 14.9507C174.555 14.7459 174.555 14.5411 174.555 14.4046C174.069 14.7459 173.584 14.9507 172.959 15.0872C172.959 15.292 173.028 15.4286 173.098 15.6334C173.167 15.8382 173.237 15.9747 173.306 16.1795C173.861 16.043 174.417 15.8382 174.833 15.5651C174.694 15.292 174.625 15.0872 174.625 14.9507Z" fill="white"/>
<path d="M196.628 22.8698C196.42 20.0708 195.032 17.6814 192.672 16.1113C195.448 16.9305 197.322 20.0708 196.628 22.8698Z" fill="white"/>
<path d="M181.219 14.3363H179.553C179.553 13.3123 178.928 12.493 178.026 12.0834C178.442 11.6738 178.859 11.3325 179.345 10.9229C180.525 11.7421 181.219 12.9709 181.219 14.3363Z" fill="#939598"/>
<path d="M179.414 10.9912C178.928 11.3325 178.512 11.7421 178.095 12.1517C177.818 12.0152 177.54 11.9469 177.262 11.9469C177.193 11.9469 177.193 11.9469 177.124 11.9469C176.985 11.9469 176.846 11.9469 176.707 12.0152C176.499 12.0152 176.291 12.0834 176.152 12.1517C175.249 12.493 174.625 13.3805 174.625 14.4046C174.625 14.6094 174.625 14.8142 174.694 14.9507C174.764 15.1555 174.833 15.292 174.902 15.4286C174.972 15.6334 175.111 15.8382 175.319 15.9747C175.041 16.4526 174.833 16.9987 174.625 17.5449C174.069 17.1353 173.653 16.5891 173.375 15.9747C173.306 15.8382 173.237 15.6334 173.167 15.4286C173.098 15.292 173.098 15.0872 173.028 14.8824C173.028 14.6776 172.959 14.4728 172.959 14.268C172.959 12.3565 174.347 10.7181 176.152 10.3085C176.36 10.2402 176.499 10.2402 176.707 10.1719C176.846 10.1719 176.985 10.1719 177.193 10.1719H177.262C178.026 10.2402 178.789 10.5133 179.414 10.9912Z" fill="#939598"/>
<path d="M177.054 16.8622V18.4324C176.082 18.4324 175.249 18.1593 174.555 17.6131C174.764 17.067 174.972 16.5209 175.249 16.043C175.666 16.5209 176.291 16.8622 177.054 16.8622Z" fill="#939598"/>
<path d="M165.254 18.9102C164.976 17.067 163.38 15.6334 161.436 15.6334C160.673 15.6334 159.909 15.8382 159.354 16.2478C158.313 16.9305 157.549 18.091 157.549 19.4564C157.549 20.1391 157.688 20.7535 158.035 21.2996C158.729 22.4602 159.979 23.2794 161.436 23.2794C162.686 23.2794 163.796 22.665 164.491 21.7775C164.976 21.0948 165.324 20.3439 165.324 19.4564C165.324 19.2516 165.324 19.0468 165.254 18.9102ZM161.436 20.89C160.673 20.89 159.979 20.2756 159.979 19.4564C159.979 18.6372 160.604 18.0228 161.436 18.0228C162.269 18.0228 162.894 18.6372 162.894 19.4564C162.825 20.2756 162.2 20.89 161.436 20.89Z" fill="#939598"/>
<path d="M169.349 40.8243H153.454V39.8003C153.454 38.8445 154.218 38.0936 155.189 38.0936H167.545C168.517 38.0936 169.28 38.8445 169.28 39.8003V40.8243H169.349Z" fill="#1E75BC"/>
<path d="M194.546 23.5525C194.338 20.7535 192.949 18.3641 190.589 16.7939C193.366 17.6131 195.24 20.7535 194.546 23.5525Z" fill="#1E75BC"/>
<path d="M188.577 29.9014C192.832 29.9014 196.281 26.5087 196.281 22.3236C196.281 18.1386 192.832 14.7459 188.577 14.7459C184.321 14.7459 180.872 18.1386 180.872 22.3236C180.872 26.5087 184.321 29.9014 188.577 29.9014Z" stroke="#1E75BC" stroke-width="1.5" stroke-miterlimit="10"/>
<path d="M188.577 33.6561C194.94 33.6561 200.099 28.5824 200.099 22.3236C200.099 16.0649 194.94 10.9911 188.577 10.9911C182.213 10.9911 177.054 16.0649 177.054 22.3236C177.054 28.5824 182.213 33.6561 188.577 33.6561Z" stroke="#1F75BC" stroke-width="4" stroke-miterlimit="10"/>
</g>
<defs>
<clipPath id="clip0_70_457">
<rect width="236" height="54" fill="white" transform="translate(0.26239)"/>
</clipPath>
</defs>
</svg>
