<svg width="20" height="15" viewBox="0 0 20 15" fill="none" xmlns="http://www.w3.org/2000/svg">
<path d="M0.0893368 4.92285C0.288045 5.05224 0.445163 5.15853 0.606902 5.26481C3.08844 6.92379 5.57459 8.57815 8.05613 10.2371C9.21603 11.0089 10.4499 11.0135 11.619 10.2371C14.1976 8.51807 16.7715 6.79902 19.3501 5.07535C19.4148 5.03376 19.4841 4.99217 19.5719 4.93209C19.5766 5.01527 19.5812 5.07997 19.5812 5.14004C19.5812 7.74173 19.5812 10.3388 19.5812 12.9405C19.5812 13.9525 18.9342 14.6272 17.9222 14.6642C17.8667 14.6642 17.8159 14.6642 17.7605 14.6642C12.4739 14.6642 7.18736 14.6642 1.90543 14.6642C1.48029 14.6642 1.07825 14.5995 0.736292 14.3314C0.288045 13.9802 0.0847168 13.5227 0.0847168 12.9543C0.0893379 10.3434 0.0847168 7.72787 0.0847168 5.11232C0.0893379 5.07073 0.0893368 5.01989 0.0893368 4.92285Z" fill="white"/>
<path d="M9.84928 0.837891C12.5295 0.837891 15.2051 0.837891 17.8854 0.837891C18.7495 0.837891 19.415 1.36008 19.549 2.18726C19.6044 2.51535 19.5813 2.8527 19.5721 3.18542C19.5721 3.24549 19.4797 3.31943 19.415 3.36564C16.744 5.14939 14.073 6.92851 11.402 8.71226C11.1986 8.85089 10.9907 8.98491 10.7827 9.12354C10.1496 9.53944 9.50731 9.53944 8.87422 9.1143C6.31875 7.40911 3.76328 5.70854 1.2078 4.00335C0.875082 3.78154 0.537739 3.56435 0.209641 3.33329C0.149566 3.28708 0.0941128 3.18541 0.0941128 3.11148C0.0941128 2.77876 0.0756295 2.43679 0.135704 2.11332C0.265095 1.40167 0.87508 0.893345 1.59597 0.847133C1.69764 0.842512 1.79468 0.837891 1.89635 0.837891C4.54886 0.837891 7.20138 0.837891 9.84928 0.837891Z" fill="white"/>
</svg>
