<svg width="20" height="20" viewBox="0 0 20 20" fill="none" xmlns="http://www.w3.org/2000/svg">
<path d="M18.6756 19.5161C16.4062 19.5161 14.1941 19.0102 12.0393 17.9982C9.88458 16.9863 7.97579 15.6493 6.31294 13.9871C4.65008 12.325 3.31305 10.4162 2.30182 8.26072C1.2906 6.10528 0.784639 3.89319 0.783936 1.62445C0.783936 1.30778 0.889491 1.04389 1.1006 0.83278C1.31171 0.621669 1.5756 0.516113 1.89227 0.516113H6.16727C6.41357 0.516113 6.63347 0.59528 6.82699 0.753613C7.02051 0.911947 7.13486 1.11426 7.17005 1.36056L7.85616 5.055C7.89134 5.3013 7.88677 5.52578 7.84244 5.72845C7.7981 5.93111 7.69712 6.11126 7.53949 6.26889L5.00616 8.855C5.74505 10.1217 6.66866 11.3092 7.77699 12.4175C8.88532 13.5258 10.108 14.4846 11.445 15.2939L13.9256 12.8133C14.0839 12.655 14.2908 12.5364 14.5463 12.4576C14.8017 12.3788 15.0522 12.3566 15.2978 12.3911L18.9395 13.13C19.1858 13.1828 19.3881 13.3017 19.5464 13.4868C19.7048 13.6719 19.7839 13.8872 19.7839 14.1328V18.4078C19.7839 18.7244 19.6784 18.9883 19.4673 19.1994C19.2562 19.4106 18.9923 19.5161 18.6756 19.5161Z" fill="white"/>
</svg>
