<svg width="26" height="25" viewBox="0 0 26 25" fill="none" xmlns="http://www.w3.org/2000/svg">
<path d="M23.1643 6.35783C22.3996 6.68392 21.591 6.89949 20.7635 6.99783C21.6365 6.48515 22.2907 5.67861 22.6048 4.72783C21.7844 5.20789 20.8863 5.54612 19.9497 5.72783C19.3236 5.0604 18.4898 4.61612 17.5792 4.46468C16.6686 4.31323 15.7326 4.46319 14.918 4.89102C14.1034 5.31885 13.4563 6.00036 13.0782 6.82866C12.7 7.65697 12.6123 8.58522 12.8287 9.46783C11.1699 9.38535 9.54737 8.96078 8.06642 8.22169C6.58547 7.4826 5.27926 6.44552 4.23263 5.17783C3.86553 5.808 3.67263 6.52165 3.67312 7.24783C3.67182 7.92221 3.84018 8.58644 4.1632 9.18139C4.48623 9.77634 4.9539 10.2835 5.52458 10.6578C4.86129 10.6401 4.21217 10.4651 3.63243 10.1478V10.1978C3.6374 11.1427 3.97423 12.0569 4.58595 12.7858C5.19766 13.5147 6.04671 14.0135 6.98947 14.1978C6.62656 14.3064 6.24977 14.3636 5.87045 14.3678C5.60788 14.3648 5.34597 14.3414 5.08715 14.2978C5.35562 15.1106 5.87516 15.821 6.57347 16.33C7.27179 16.839 8.11415 17.1214 8.98334 17.1378C7.51561 18.2731 5.7035 18.8927 3.83589 18.8978C3.49585 18.8989 3.15607 18.8789 2.8186 18.8378C4.72543 20.0481 6.94757 20.6905 9.21732 20.6878C10.7836 20.7038 12.3375 20.4128 13.7881 19.8319C15.2387 19.251 16.557 18.3917 17.6661 17.3043C18.7751 16.2169 19.6526 14.9232 20.2473 13.4987C20.842 12.0742 21.142 10.5476 21.1297 9.00783C21.1297 8.83783 21.1297 8.65783 21.1297 8.47783C21.928 7.89264 22.6164 7.17525 23.1643 6.35783Z" fill="white"/>
</svg>
